Coordinates
version=1
nRows=22
nColumns=24
inDegrees=yes

Units are S.I. units (second, meters, Newtons, ...)
Angles are in degrees.

endheader
time	pelvis_tilt	pelvis_list	pelvis_rotation	pelvis_tx	pelvis_ty	pelvis_tz	hip_flexion_r	hip_adduction_r	hip_rotation_r	knee_angle_r	ankle_angle_r	subtalar_angle_r	mtp_angle_r	hip_flexion_l	hip_adduction_l	hip_rotation_l	knee_angle_l	ankle_angle_l	subtalar_angle_l	mtp_angle_l	lumbar_extension	lumbar_bending	lumbar_rotation
      7.06000000	     61.22680337	      4.45795352	      8.08478260	      0.77889687	      1.08358740	     -0.27494713	     -4.36846028	    -12.94488350	     -4.08109633	    -52.09747772	    -16.53266009	      0.48616404	     47.20117794	      8.42457738	    -17.67586729	      3.40892823	    -62.72593907	     -5.40919097	     13.73778517	    -40.75199451	      0.00000000	      0.00000000	      0.00000000
      7.07000000	     61.25406901	      4.46330113	      8.08943878	      0.77879534	      1.08358385	     -0.27495128	     -4.38332013	    -12.94421245	     -4.08572295	    -52.09333550	    -16.55241667	      0.48009254	     47.35543078	      8.42050913	    -17.68131643	      3.45479767	    -62.72340313	     -5.43998079	     13.78853152	    -40.77330937	      0.00000000	      0.00000000	      0.00000000
      7.08000000	     61.27809939	      4.46642158	      8.09455286	      0.77867041	      1.08355737	     -0.27494443	     -4.38999575	    -12.94028100	     -4.09013251	    -52.09011884	    -16.56620587	      0.48402833	     47.46059508	      8.42479964	    -17.68724719	      3.49136911	    -62.71960875	     -5.46918191	     13.82227779	    -40.78571247	      0.00000000	      0.00000000	      0.00000000
      7.09000000	     61.30098430	      4.46766557	      8.10092981	      0.77853488	      1.08351927	     -0.27493179	     -4.39127768	    -12.93266223	     -4.09276989	    -52.08853144	    -16.57307015	      0.49801137	     47.50986730	      8.43357637	    -17.69401482	      3.51611446	    -62.71440068	     -5.49158334	     13.83421680	    -40.78708338	      0.00000000	      0.00000000	      0.00000000
      7.10000000	     61.32562780	      4.46781294	      8.10822865	      0.77839432	      1.08348308	     -0.27491055	     -4.39054319	    -12.92170088	     -4.09190342	    -52.08967955	    -16.57135483	      0.52138506	     47.50491799	      8.44234936	    -17.70196338	      3.52951337	    -62.70734426	     -5.50418881	     13.82442326	    -40.77690396	      0.00000000	      0.00000000	      0.00000000
      7.11000000	     61.35427591	      4.46768439	      8.11483996	      0.77824784	      1.08344793	     -0.27487634	     -4.39100966	    -12.90822847	     -4.08673838	    -52.09476360	    -16.55962554	      0.55228669	     47.45523474	      8.44724011	    -17.71085648	      3.53423095	    -62.69762674	     -5.50631431	     13.79735377	    -40.75627653	      0.00000000	      0.00000000	      0.00000000
      7.12000000	     61.38768874	      4.46807977	      8.11836817	      0.77809360	      1.08340774	     -0.27483370	     -4.39503107	    -12.89340547	     -4.07823294	    -52.10442262	    -16.53791681	      0.58741560	     47.37633611	      8.44619433	    -17.71986999	      3.53362262	    -62.68423702	     -5.49904225	     13.76010687	    -40.72760531	      0.00000000	      0.00000000	      0.00000000
      7.13000000	     61.42509997	      4.46944659	      8.11704254	      0.77793315	      1.08336472	     -0.27478911	     -4.40318970	    -12.87882541	     -4.06913890	    -52.11779242	    -16.50869063	      0.62231240	     47.28715147	      8.43925412	    -17.72782038	      3.53017488	    -62.66661460	     -5.48453289	     13.72034761	    -40.69407994	      0.00000000	      0.00000000	      0.00000000
      7.14000000	     61.46466194	      4.47185816	      8.11097241	      0.77777586	      1.08332348	     -0.27474391	     -4.41360956	    -12.86624407	     -4.06335854	    -52.13188825	    -16.47691069	      0.65215881	     47.20694909	      8.42788916	    -17.73355126	      3.52470342	    -62.64517550	     -5.46543429	     13.68460627	    -40.65911292	      0.00000000	      0.00000000	      0.00000000
      7.15000000	     61.50395118	      4.47529370	      8.10213582	      0.77763605	      1.08328339	     -0.27469758	     -4.42266790	    -12.85705228	     -4.06463066	    -52.14232618	    -16.44900017	      0.67285507	     47.15223673	      8.41430622	    -17.73646041	      3.51677117	    -62.62101782	     -5.44435824	     13.65724344	    -40.62584234	      0.00000000	      0.00000000	      0.00000000
      7.16000000	     61.54032591	      4.47960120	      8.09333089	      0.77752164	      1.08324325	     -0.27465051	     -4.42716115	    -12.85195117	     -4.07495588	    -52.14540207	    -16.43098369	      0.68198316	     47.13405846	      8.40105162	    -17.73675986	      3.50579287	    -62.59502972	     -5.42337242	     13.64011311	    -40.59676380	      0.00000000	      0.00000000	      0.00000000
      7.17000000	     61.57149810	      4.48445763	      8.08686878	      0.77743225	      1.08320517	     -0.27460421	     -4.42621650	    -12.85061482	     -4.09383181	    -52.14002586	    -16.42656914	      0.67932170	     47.15606199	      8.39056478	    -17.73510887	      3.49188421	    -62.56724346	     -5.40359193	     13.63281803	    -40.57351808	      0.00000000	      0.00000000	      0.00000000
      7.18000000	     61.59618073	      4.48947075	      8.08378622	      0.77736414	      1.08317388	     -0.27456015	     -4.42171949	    -12.85158484	     -4.11864309	    -52.12817331	    -16.43599547	      0.66677302	     47.21361780	      8.38450355	    -17.73194404	      3.47605148	    -62.53693199	     -5.38506729	     13.63335873	    -40.55682806	      0.00000000	      0.00000000	      0.00000000
      7.19000000	     61.61456420	      4.49435430	      8.08392450	      0.77731366	      1.08315364	     -0.27452184	     -4.41687928	    -12.85287779	     -4.14576415	    -52.11338650	    -16.45605168	      0.64777512	     47.29415254	      8.38296196	    -17.72725559	      3.45995772	    -62.50332204	     -5.36713411	     13.63897355	    -40.54655048	      0.00000000	      0.00000000	      0.00000000
      7.20000000	     61.62831334	      4.49896742	      8.08645339	      0.77727837	      1.08314424	     -0.27449506	     -4.41401911	    -12.85300919	     -4.17180307	    -52.09831916	    -16.48109443	      0.62643227	     47.37870640	      8.38424686	    -17.72087689	      3.44545316	    -62.46623469	     -5.34914804	     13.64699276	    -40.54179446	      0.00000000	      0.00000000	      0.00000000
      7.21000000	     61.63959961	      4.50289335	      8.09025700	      0.77725766	      1.08314004	     -0.27447794	     -4.41372945	    -12.85166700	     -4.19443302	    -52.08334931	    -16.50452649	      0.60667567	     47.44453646	      8.38586779	    -17.71274138	      3.43385699	    -62.42593805	     -5.33123938	     13.65547669	    -40.54106146	      0.00000000	      0.00000000	      0.00000000
      7.22000000	     61.64970315	      4.50542722	      8.09398228	      0.77725448	      1.08313350	     -0.27446072	     -4.41539160	    -12.84933051	     -4.21275229	    -52.06686100	    -16.52016898	      0.59170520	     47.46840806	      8.38600666	    -17.70308594	      3.42530239	    -62.38247851	     -5.31466178	     13.66340408	    -40.54238400	      0.00000000	      0.00000000	      0.00000000
      7.23000000	     61.65820782	      4.50623213	      8.09622061	      0.77726766	      1.08312453	     -0.27444005	     -4.41771959	    -12.84632644	     -4.22714045	    -52.04636377	    -16.52320749	      0.58376574	     47.43009350	      8.38411539	    -17.69277543	      3.41856833	    -62.33537174	     -5.30155858	     13.67039008	    -40.54347447	      0.00000000	      0.00000000	      0.00000000
      7.24000000	     61.66357065	      4.50541553	      8.09610548	      0.77729018	      1.08312149	     -0.27442276	     -4.41913742	    -12.84232841	     -4.23856508	    -52.01980538	    -16.51068716	      0.58415181	     47.31555716	      8.38066338	    -17.68311225	      3.41127127	    -62.28385632	     -5.29431462	     13.67620595	    -40.54191318	      0.00000000	      0.00000000	      0.00000000
      7.25000000	     61.66459752	      4.50290973	      8.09374783	      0.77731941	      1.08312997	     -0.27441218	     -4.41847675	    -12.83647387	     -4.24774725	    -51.98681991	    -16.48167677	      0.59330810	     47.11935122	      8.37671010	    -17.67499342	      3.40034955	    -62.22744634	     -5.29480456	     13.68045827	    -40.53538350	      0.00000000	      0.00000000	      0.00000000
      7.26000000	     61.66128061	      4.49834039	      8.09006816	      0.77735562	      1.08314784	     -0.27440048	     -4.41571915	    -12.82783742	     -4.25464473	    -51.94940926	    -16.43717537	      0.61090690	     46.84585877	      8.37324889	    -17.66849144	      3.38316011	    -62.16659108	     -5.30376657	     13.68261096	    -40.52192107	      0.00000000	      0.00000000	      0.00000000
      7.27000000	     61.65479374	      4.49161019	      8.08625656	      0.77739863	      1.08316687	     -0.27438216	     -4.41198731	    -12.81604084	     -4.25843017	    -51.91140130	    -16.37978276	      0.63582579	     46.50918533	      8.37050811	    -17.66328512	      3.35887090	    -62.10294743	     -5.32043686	     13.68228831	    -40.50012945	      0.00000000	      0.00000000	      0.00000000
